<mxfile host="65bd71144e">
    <diagram id="f7qwTwm8RdyE0NxsK-oF" name="Page-1">
        <mxGraphModel dx="1788" dy="617" grid="1" gridSize="10" guides="1" tooltips="1" connect="1" arrows="1" fold="1" page="1" pageScale="1" pageWidth="850" pageHeight="1100" math="0" shadow="0">
            <root>
                <mxCell id="0"/>
                <mxCell id="1" parent="0"/>
                <mxCell id="3" value="&lt;h1&gt;design 1&lt;/h1&gt;&lt;div&gt;Record Creation:&lt;/div&gt;&lt;p&gt;pull the metadata, derive ipfsLogo hash, pull logo, verify, save to record.&lt;/p&gt;&lt;p&gt;Realtime:&lt;/p&gt;&lt;p&gt;get logo - if no logo file, get ipfsLogo (again) and save it as file.&lt;/p&gt;&lt;p&gt;realtime explicit refresh:&lt;/p&gt;&lt;p&gt;None&lt;/p&gt;" style="text;html=1;strokeColor=none;fillColor=none;spacing=5;spacingTop=-20;whiteSpace=wrap;overflow=hidden;rounded=0;" vertex="1" parent="1">
                    <mxGeometry x="20" y="10" width="190" height="310" as="geometry"/>
                </mxCell>
                <mxCell id="4" value="&lt;h1&gt;design 2&lt;/h1&gt;&lt;div&gt;Record Creation:&lt;/div&gt;&lt;p&gt;pull the metadata, derive ipfsLogo hash, pull logo, verify, save to record. save to file (move storage functionality into raven).&lt;/p&gt;&lt;p&gt;Realtime:&lt;/p&gt;&lt;p&gt;get logo - get it from file, on missing, replace with standard.&lt;/p&gt;&lt;p&gt;realtime explicit refresh:&amp;nbsp;&lt;/p&gt;&lt;p&gt;redefine ipfsLogo, save to record, pull logo and save to file.&lt;/p&gt;" style="text;html=1;strokeColor=none;fillColor=none;spacing=5;spacingTop=-20;whiteSpace=wrap;overflow=hidden;rounded=0;" vertex="1" parent="1">
                    <mxGeometry x="235" y="10" width="190" height="310" as="geometry"/>
                </mxCell>
                <mxCell id="5" value="&lt;h1&gt;design 3&lt;/h1&gt;&lt;div&gt;Record Creation:&lt;/div&gt;&lt;p&gt;pull the metadata.&lt;/p&gt;&lt;p&gt;Realtime:&lt;/p&gt;&lt;p&gt;get logo - if no logo on record, look at metadata and derive it, pull it, save it to record, save it to file. else if logo on record, but no file, save it from ipfs, else if logo and file, pull file.&lt;/p&gt;&lt;p&gt;realtime explicit refresh:&amp;nbsp;&lt;/p&gt;&lt;p&gt;None&lt;/p&gt;" style="text;html=1;strokeColor=none;fillColor=none;spacing=5;spacingTop=-20;whiteSpace=wrap;overflow=hidden;rounded=0;" vertex="1" parent="1">
                    <mxGeometry x="460" y="10" width="190" height="310" as="geometry"/>
                </mxCell>
                <mxCell id="8" value="&lt;h1&gt;design 4&lt;/h1&gt;&lt;div&gt;Record Creation:&lt;/div&gt;&lt;p&gt;add listener on raven_mobile service that listens to new Securities, when new securities are created, pull and save. (force it and many others run in background - how? currently listeners can freeze the front end...).&lt;/p&gt;&lt;p&gt;Realtime:&lt;/p&gt;&lt;p&gt;get logo - if no logo on record, or no logo in file, display standard, else, display file&lt;/p&gt;&lt;p&gt;realtime explicit refresh:&amp;nbsp;&lt;/p&gt;&lt;p&gt;None&lt;/p&gt;&lt;p&gt;&lt;br&gt;&lt;/p&gt;&lt;p&gt;&lt;span&gt;I think this design is ideal as the storage management of files lives in raven_mobile because raven_mobile handles exports to file.&lt;/span&gt;&lt;br&gt;&lt;/p&gt;" style="text;html=1;strokeColor=none;fillColor=none;spacing=5;spacingTop=-20;whiteSpace=wrap;overflow=hidden;rounded=0;" vertex="1" parent="1">
                    <mxGeometry x="660" y="10" width="190" height="470" as="geometry"/>
                </mxCell>
            </root>
        </mxGraphModel>
    </diagram>
</mxfile>